<?xml version="1.0" encoding="UTF-8" standalone="no"?>
<!-- Created with Inkscape (http://www.inkscape.org/) -->

<svg
   width="32"
   height="32"
   viewBox="0 0 8.4666659 8.4666659"
   version="1.1"
   id="svg1"
   xml:space="preserve"
   xmlns="http://www.w3.org/2000/svg"
   xmlns:svg="http://www.w3.org/2000/svg"><defs
     id="defs1"><clipPath
       id="clip0"><rect
         x="736"
         y="292"
         width="3134"
         height="832"
         id="rect1" /></clipPath></defs><g
     id="layer1"><rect
       style="mix-blend-mode:normal;fill:#ffffff;fill-rule:evenodd;stroke:#e61717;stroke-width:0;stroke-opacity:1;paint-order:fill markers stroke"
       id="rect2"
       width="1.3147436"
       height="1.1256368"
       x="0.48129144"
       y="0.33637241"
       transform="rotate(0.44532346)" /><path
       style="fill:#000000;fill-opacity:1;fill-rule:evenodd;stroke:#e61717;stroke-width:0;stroke-opacity:1;paint-order:fill markers stroke"
       id="path19"
       d="M 6.7745145,7.6308062 A 4.2333331,4.2333331 0 0 1 0.86015431,6.8029108 4.2333331,4.2333331 0 0 1 1.6588076,0.88453097 4.2333331,4.2333331 0 0 1 7.5810625,1.6539226 4.2333331,4.2333331 0 0 1 6.8409512,7.579908" /><g
       style="overflow:hidden"
       id="g19"
       transform="matrix(0.00956653,0,0,0.01044256,1.4900905,1.1985065)"><g
         id="g35"
         transform="translate(-1127.2065,-64.259886)"><path
           style="fill:#ed1c24;fill-opacity:1;fill-rule:evenodd;stroke-width:45.833"
           d="m 1218.1149,64.407854 149.6958,0.110477 -90.088,584.325419 h -150.263 z"
           id="path26" /><path
           style="fill:#ed1c24;fill-opacity:1;fill-rule:evenodd;stroke-width:46.2534"
           d="m 1325.6607,282.14062 184.3836,0.0156 216.3845,0.004 75.5985,74.78125 -73.5457,73.90625 h -423.7902 z"
           id="path29" /><path
           style="fill:#ffffff;fill-opacity:1;fill-rule:evenodd;stroke-width:45.833"
           d="m 1551.3164,64.164062 -26.6601,172.687498 h 150.8164 l 26.6601,-172.691404 z"
           id="path34" /><path
           style="fill:#ffffff;fill-opacity:1;fill-rule:evenodd;stroke-width:45.833"
           d="m 1487.6705,476.12523 -26.6601,172.68749 h 150.8164 l 26.6601,-172.6914 z"
           id="path34-1" /></g></g></g></svg>
